<svg aria-hidden="true" style="position:absolute;width:0;height:0;overflow:hidden" xmlns="http://www.w3.org/2000/svg"><defs><symbol id="icon-right-arrow" viewBox="0 0 32 32"><path fill="#999" style="fill:var(--color1, #999)" d="M10.022 30.09a.988.988 0 0 1-.708.298H9.304a1.018 1.018 0 0 1-.719-1.738L21.235 16 8.585 3.35a1.018 1.018 0 0 1 1.44-1.44l13.366 13.37a1.017 1.017 0 0 1 0 1.44l-13.37 13.37z"/></symbol><symbol id="icon-envelope" viewBox="0 0 32 32"><path fill="#999" style="fill:var(--color1, #999)" d="M28.094 3.823H3.913A3.917 3.917 0 0 0 0 7.738v16.525a3.917 3.917 0 0 0 3.913 3.915h24.175a3.917 3.917 0 0 0 3.913-3.917V7.736a3.913 3.913 0 0 0-3.906-3.913zm2.125 20.439a2.129 2.129 0 0 1-2.125 2.127H3.913a2.127 2.127 0 0 1-2.125-2.127V7.744c0-1.173.954-2.127 2.125-2.127h24.175c1.173 0 2.125.954 2.125 2.127v16.518h.006z"/><path fill="#999" style="fill:var(--color1, #999)" d="m20.181 15.795 7.827-7.019a.897.897 0 0 0 .063-1.266l.001.001a.897.897 0 0 0-1.264-.065l.001-.001-10.795 9.685-2.103-1.877c-.006-.009-.013-.015-.013-.021a1.443 1.443 0 0 0-.144-.126l-.003-.002-8.567-7.663a.889.889 0 0 0-1.265.072l-.001.001a.892.892 0 0 0 .074 1.265l.001.001 7.919 7.078-7.887 7.381A.897.897 0 1 0 5.25 24.55l8.006-7.488 2.172 1.939a.89.89 0 0 0 1.192-.007l-.001.001 2.231-2.001 7.957 7.563a.886.886 0 0 0 1.267-.033.892.892 0 0 0-.033-1.262l-7.859-7.465z"/></symbol><symbol id="icon-call" viewBox="0 0 32 32"><path fill="#999" style="fill:var(--color1, #999)" d="m31.159 24.687-6.477-4.32a1.887 1.887 0 0 0-2.527.408l-.003.004-1.888 2.426a.807.807 0 0 1-1.037.215l.004.002-.361-.198c-1.188-.649-2.669-1.455-5.653-4.437-2.98-2.987-3.789-4.467-4.437-5.653l-.198-.361a.808.808 0 0 1 .211-1.036l.002-.001 2.426-1.886a1.893 1.893 0 0 0 .407-2.539l.004.007L7.312.841A1.882 1.882 0 0 0 4.769.276l.008-.005-2.709 1.626A3.833 3.833 0 0 0 .334 4.131l-.007.027C-.65 7.712.084 13.845 9.118 22.88 16.305 30.067 21.656 32 25.331 32h.036c.879 0 1.73-.12 2.537-.344l-.066.016a3.84 3.84 0 0 0 2.252-1.723l.01-.017 1.63-2.709a1.879 1.879 0 0 0-.565-2.53l-.007-.004zm-.347 1.988-1.626 2.709a2.74 2.74 0 0 1-1.626 1.259c-3.281.902-9.011.156-17.685-8.516C1.201 13.453.456 7.723 1.357 4.442a2.759 2.759 0 0 1 1.261-1.63l2.709-1.623a.816.816 0 0 1 1.099.242l.002.003 2.347 3.524 1.969 2.953a.817.817 0 0 1-.177 1.097l-.002.001-2.423 1.886a1.864 1.864 0 0 0-.49 2.405l-.005-.009.192.35c.683 1.25 1.53 2.805 4.623 5.899s4.646 3.94 5.897 4.621l.35.192a1.866 1.866 0 0 0 2.393-.488l.003-.004 1.886-2.426a.819.819 0 0 1 1.101-.175l-.003-.002 6.477 4.32a.813.813 0 0 1 .247 1.099zM18.133 5.335a9.076 9.076 0 0 1 9.067 9.066.533.533 0 1 0 1.066 0c-.005-5.595-4.539-10.129-10.133-10.135h-.001a.533.533 0 1 0 0 1.066z"/><path fill="#999" style="fill:var(--color1, #999)" d="M18.133 8.535A5.874 5.874 0 0 1 24 14.401a.533.533 0 1 0 1.066 0 6.939 6.939 0 0 0-6.933-6.935.533.533 0 1 0 0 1.066z"/><path fill="#999" style="fill:var(--color1, #999)" d="M18.133 11.735a2.67 2.67 0 0 1 2.667 2.667.533.533 0 1 0 1.066 0 3.737 3.737 0 0 0-3.733-3.735.533.533 0 1 0 0 1.066z"/></symbol><symbol id="icon-placeholder" viewBox="0 0 32 32"><path fill="#999" style="fill:var(--color1, #999)" d="M15.979 0C9.505.007 4.258 5.253 4.25 11.726v.001c0 2.972 1.873 7.168 5.564 12.476a83.81 83.81 0 0 0 5.55 7.107l-.085-.099.7.789.7-.789a82.93 82.93 0 0 0 5.286-6.743l.177-.265c3.691-5.308 5.564-9.504 5.564-12.476C27.697 5.254 22.452.009 15.98 0h-.001zm4.638 23.119a84.697 84.697 0 0 1-4.741 6.16l.103-.125a83.574 83.574 0 0 1-4.451-5.754l-.178-.266c-3.42-4.915-5.227-8.862-5.227-11.407.007-5.44 4.416-9.849 9.855-9.856h.001c5.44.007 9.849 4.416 9.856 9.855v.001c0 2.543-1.805 6.483-5.218 11.392z"/><path fill="#999" style="fill:var(--color1, #999)" d="M15.977 4.335a6.93 6.93 0 0 0-6.923 6.92 6.93 6.93 0 0 0 6.925 6.923 6.93 6.93 0 0 0 6.921-6.922 6.93 6.93 0 0 0-6.92-6.921zm0 11.972a5.056 5.056 0 0 1-5.054-5.052 5.056 5.056 0 0 1 5.056-5.047 5.057 5.057 0 0 1 5.05 5.049 5.057 5.057 0 0 1-5.049 5.05z"/></symbol></defs></svg>